<?xml version="1.0" encoding="utf-8"?>
<!-- Generator: Adobe Illustrator 23.0.2, SVG Export Plug-In . SVG Version: 6.00 Build 0)  -->
<svg version="1.1" id="Layer_1" xmlns="http://www.w3.org/2000/svg" xmlns:xlink="http://www.w3.org/1999/xlink" x="0px" y="0px"
	 viewBox="0 0 100 100" style="enable-background:new 0 0 100 100;" xml:space="preserve">
<style type="text/css">
	.st0{fill:#9788F8;}
	.st1{fill-rule:evenodd;clip-rule:evenodd;fill:#9788F8;}
	.st2{opacity:0.45;fill:#9788F8;enable-background:new    ;}
	.st3{opacity:0.6;fill:#9788F8;enable-background:new    ;}
	.st4{opacity:0.8;fill:#9788F8;enable-background:new    ;}
</style>
<path class="st0" d="M57.6,89.6H10.5V10.1h47.1V89.6z M31.3,76.2c1.8,3.7,5.2,6.8,11.2,6.8c6.6,0,11.1-3.5,11.1-11.2V46.4h-7.4v25.3
	c0,3.7-1.5,4.7-4,4.7c-2.5,0-3.6-1.8-4.8-3.8L31.3,76.2"/>
<path class="st0" d="M54.7,10.1h34.9v79.5H54.7V10.1z M57.6,75.4c2.2,4.3,6.6,7.6,13.5,7.6c7.1,0,12.3-3.7,12.3-10.4
	c0-6.2-3.6-9-9.9-11.7l-1.9-0.8c-3.2-1.4-4.6-2.3-4.6-4.5c0-1.8,1.4-3.2,3.6-3.2c2.1,0,3.5,0.9,4.8,3.2l5.8-3.7
	c-2.4-4.3-5.8-6-10.6-6c-6.6,0-10.9,4.3-10.9,9.8c0,6.1,3.6,8.9,8.9,11.2l1.9,0.8c3.4,1.5,5.4,2.4,5.4,4.9c0,2.1-2,3.7-5,3.7
	c-3.7,0-5.7-1.9-7.3-4.5L57.6,75.4"/>
</svg>
