<?xml version="1.0" encoding="utf-8"?>
<!-- Generator: Adobe Illustrator 23.0.2, SVG Export Plug-In . SVG Version: 6.00 Build 0)  -->
<svg version="1.1" id="Layer_1" xmlns="http://www.w3.org/2000/svg" xmlns:xlink="http://www.w3.org/1999/xlink" x="0px" y="0px"
	 viewBox="0 0 100 100" style="enable-background:new 0 0 100 100;" xml:space="preserve">
<style type="text/css">
	.st0{fill:#9788F8;}
	.st1{fill-rule:evenodd;clip-rule:evenodd;fill:#9788F8;}
	.st2{opacity:0.45;fill:#9788F8;enable-background:new    ;}
	.st3{opacity:0.6;fill:#9788F8;enable-background:new    ;}
	.st4{opacity:0.8;fill:#9788F8;enable-background:new    ;}
</style>
<path class="st0" d="M89.2,47L54.1,11.9c-2-2-5.3-2-7.3,0l-7.3,7.3l9.2,9.2c2.1-0.7,4.6-0.2,6.3,1.5c1.7,1.7,2.2,4.2,1.5,6.4
	l8.9,8.9c2.2-0.7,4.6-0.3,6.4,1.5c2.4,2.4,2.4,6.3,0,8.7c-2.4,2.4-6.3,2.4-8.7,0c-1.8-1.8-2.3-4.5-1.3-6.7l-8.3-8.3l0,21.9
	c0.6,0.3,1.2,0.7,1.6,1.2c2.4,2.4,2.4,6.3,0,8.7c-2.4,2.4-6.3,2.4-8.7,0c-2.4-2.4-2.4-6.3,0-8.7c0.6-0.6,1.3-1,2-1.3V39.9
	c-0.8-0.3-1.4-0.8-2-1.3c-1.8-1.8-2.3-4.5-1.3-6.7l-9.1-9.1L11.9,46.8c-2,2-2,5.3,0,7.3L47,89.2c2,2,5.3,2,7.3,0l34.9-34.9
	C91.2,52.3,91.2,49,89.2,47"/>
</svg>
