<?xml version="1.0" encoding="utf-8"?>
<!-- Generator: Adobe Illustrator 23.0.2, SVG Export Plug-In . SVG Version: 6.00 Build 0)  -->
<svg version="1.1" id="Layer_1" xmlns="http://www.w3.org/2000/svg" xmlns:xlink="http://www.w3.org/1999/xlink" x="0px" y="0px"
	 viewBox="0 0 100 100" style="enable-background:new 0 0 100 100;" xml:space="preserve">
<style type="text/css">
	.st0{fill:#9788F8;}
	.st1{fill-rule:evenodd;clip-rule:evenodd;fill:#9788F8;}
	.st2{opacity:0.45;fill:#9788F8;enable-background:new    ;}
	.st3{opacity:0.6;fill:#9788F8;enable-background:new    ;}
	.st4{opacity:0.8;fill:#9788F8;enable-background:new    ;}
</style>
<path class="st0" d="M92.7,52.5h-4v4h-4v-4h-4v-4h4v-4h4v4h4V52.5 M78.1,52.5h-4v4h-4v-4h-4v-4h4v-4h4v4h4V52.5"/>
<path class="st0" d="M58.1,59.1c-3,5.3-8.6,8.9-15.1,8.9c-6.5,0-12.1-3.5-15.1-8.7c-1.5-2.6-2.3-5.6-2.3-8.6
	c0-9.6,7.8-17.4,17.4-17.4c6.4,0,12,3.5,15,8.7l15.2-8.7c-6-10.4-17.3-17.4-30.2-17.4c-19.3,0-34.9,15.6-34.9,34.9
	c0,6.3,1.7,12.2,4.6,17.4C18.8,78.4,30,85.4,43,85.4c13,0,24.3-7.1,30.3-17.6L58.1,59.1"/>
</svg>
