<?xml version="1.0" encoding="utf-8"?>
<!-- Generator: Adobe Illustrator 23.0.2, SVG Export Plug-In . SVG Version: 6.00 Build 0)  -->
<svg version="1.1" id="Layer_1" xmlns="http://www.w3.org/2000/svg" xmlns:xlink="http://www.w3.org/1999/xlink" x="0px" y="0px"
	 viewBox="0 0 100 100" style="enable-background:new 0 0 100 100;" xml:space="preserve">
<style type="text/css">
	.st0{fill:#9788F8;}
	.st1{fill-rule:evenodd;clip-rule:evenodd;fill:#9788F8;}
	.st2{opacity:0.45;fill:#9788F8;enable-background:new    ;}
	.st3{opacity:0.6;fill:#9788F8;enable-background:new    ;}
	.st4{opacity:0.8;fill:#9788F8;enable-background:new    ;}
</style>
<g>
	<path class="st0" d="M12.5,79.3V21c0-5.6,4.5-10.1,10.1-10.1h58.2C86.4,10.9,91,15.5,91,21v58.2c0,5.6-4.5,10.1-10.1,10.1H22.6
		C17,89.4,12.5,84.9,12.5,79.3L12.5,79.3z M34.2,73.9h23.3c5.4,0,9.3-1.6,12.5-3.9c2.4-1.7,4.4-5,4.4-9.9c0-3.1-0.6-4.9-1.8-7.1
		c-1.1-2-3.9-4.3-6.9-4.9c0,0,2.9-1.2,4.3-3.2c1.3-1.9,2.2-3.6,2.2-6.5c0-4.2-1.3-7.6-4.4-9.6c-3-1.9-5.7-2.5-14.9-2.5H34.2V73.9z"
		/>
	<path class="st0" d="M45,65.8v-13h11.4c2.3,0,4.1,0.5,5.5,1.6c1.4,1,2.1,2.8,2.1,5.2c0,1.2-0.2,2.3-0.6,3.1c-0.4,0.8-1,1.4-1.7,1.9
		c-0.7,0.5-1.5,0.8-2.5,1c-0.9,0.2-1.9,0.3-2.9,0.3H45L45,65.8z"/>
	<path class="st0" d="M45,45.6V34.5h9.8c0.9,0,1.8,0.1,2.7,0.2c0.9,0.2,1.6,0.4,2.3,0.8c0.7,0.4,1.2,1,1.6,1.7
		C61.8,38,62,38.9,62,40c0,2-0.6,3.4-1.8,4.3c-1.2,0.9-2.7,1.3-4.6,1.3L45,45.6L45,45.6z"/>
</g>
</svg>
