<?xml version="1.0" encoding="utf-8"?>
<!-- Generator: Adobe Illustrator 23.0.2, SVG Export Plug-In . SVG Version: 6.00 Build 0)  -->
<svg version="1.1" id="Layer_1" xmlns="http://www.w3.org/2000/svg" xmlns:xlink="http://www.w3.org/1999/xlink" x="0px" y="0px"
	 viewBox="0 0 100 100" style="enable-background:new 0 0 100 100;" xml:space="preserve">
<style type="text/css">
	.st0{fill:#9788F8;}
	.st1{fill-rule:evenodd;clip-rule:evenodd;fill:#9788F8;}
	.st2{opacity:0.45;fill:#9788F8;enable-background:new    ;}
	.st3{opacity:0.6;fill:#9788F8;enable-background:new    ;}
	.st4{opacity:0.8;fill:#9788F8;enable-background:new    ;}
</style>
<g>
	<path class="st0" d="M73.5,50c-1.2-2-2.4-4-3.6-6c-5.2-8.5-10.4-17-15.6-25.6c-0.3-0.4-0.6-0.8-0.8-1.4c0.1-0.2,0.3-0.1,0.5-0.1
		c6,0,12.1,0,18.1,0c0.5,0,0.7,0.2,0.9,0.6c5.7,9.2,11.3,18.5,17,27.7c0.4,0.6,0.8,1.3,1.2,1.9c1,1.8,1.1,3.6,0.1,5.4
		c-2.6,4.3-5.3,8.6-7.9,13c0,0.1-0.1,0.1-0.1,0.1c0-0.1-0.1-0.2-0.1-0.3c-2.5-4.1-5-8.2-7.5-12.3C74.8,52.1,74.3,51,73.5,50z"/>
	<path class="st0" d="M27.6,49.9c0,0.4,0.3,0.6,0.4,0.9C34.5,61.4,40.9,72,47.4,82.5c0.1,0.1,0.1,0.2,0.2,0.3C47.4,83,47.2,83,47,83
		c-6,0-12,0-18,0c-0.4,0-0.7-0.2-0.9-0.5C22.1,72.6,16,62.7,10,52.9C8.8,51,8.9,49,10,47.1c2.6-4.3,5.2-8.6,7.9-12.9
		c0.1,0.1,0.2,0.2,0.2,0.3c2.3,3.7,4.6,7.5,6.9,11.2C25.8,47.2,26.6,48.6,27.6,49.9z"/>
	<path class="st3" d="M27.6,49.9c-1-1.3-1.7-2.7-2.6-4.1c-2.3-3.7-4.6-7.5-6.9-11.2c-0.1-0.1-0.1-0.2-0.2-0.3c1-1.7,2-3.4,3.1-5.1
		c2.4-3.9,4.8-7.8,7.2-11.7c0.2-0.4,0.5-0.5,0.9-0.5c6,0,12,0,17.9,0c0.2,0,0.5-0.1,0.6,0.1c0.1,0.2-0.1,0.3-0.2,0.5
		C41.5,27.1,35.8,36.5,30,45.9C29.2,47.2,28.4,48.5,27.6,49.9z"/>
	<path class="st3" d="M73.5,50c0.8,1,1.3,2.1,2,3.1c2.5,4.1,5,8.2,7.5,12.3c0.1,0.1,0.1,0.2,0.1,0.3c-1.8,3-3.6,5.9-5.4,8.9
		c-1.6,2.6-3.2,5.2-4.8,7.9c-0.2,0.4-0.5,0.5-0.9,0.5c-6,0-11.9,0-17.9,0c-0.2,0-0.5,0.1-0.6-0.1c-0.1-0.2,0.1-0.4,0.2-0.5
		c4.6-7.6,9.2-15.1,13.9-22.7c1.8-3,3.7-6,5.5-9.1C73.3,50.4,73.4,50.2,73.5,50z"/>
</g>
</svg>
