<?xml version="1.0" encoding="utf-8"?>
<!-- Generator: Adobe Illustrator 23.0.2, SVG Export Plug-In . SVG Version: 6.00 Build 0)  -->
<svg version="1.1" id="Layer_1" xmlns="http://www.w3.org/2000/svg" xmlns:xlink="http://www.w3.org/1999/xlink" x="0px" y="0px"
	 viewBox="0 0 100 100" style="enable-background:new 0 0 100 100;" xml:space="preserve">
<style type="text/css">
	.st0{fill:#9788F8;}
	.st1{fill-rule:evenodd;clip-rule:evenodd;fill:#9788F8;}
	.st2{opacity:0.45;fill:#9788F8;enable-background:new    ;}
	.st3{opacity:0.6;fill:#9788F8;enable-background:new    ;}
	.st4{opacity:0.8;fill:#9788F8;enable-background:new    ;}
</style>
<path class="st1" d="M10.7,69.6l6.2-31.2h14.3c6.2,0.4,9.2,3.5,9.2,8.9c0,9.2-7.3,14.6-13.9,14.3h-6.9L18,69.6H10.7z M21.1,55.7
	L23,44.2h5c2.7,0,4.6,1.2,4.6,3.5c-0.4,6.6-3.5,7.7-6.9,8.1H21.1L21.1,55.7z M38.9,61.5l6.2-31.2h7.3l-1.5,8.1h6.9
	c6.2,0.4,8.5,3.5,7.7,7.3l-2.7,15.8h-7.7l2.7-14.3c0.4-1.9,0.4-3.1-2.3-3.1h-5.8l-3.5,17.3H38.9z M62.4,69.6l6.2-31.2h14.3
	c6.2,0.4,9.3,3.5,9.3,8.9c0,9.2-7.3,14.6-13.9,14.3h-6.9l-1.5,8.1H62.4z M72.8,55.7l1.9-11.6h5c2.7,0,4.6,1.2,4.6,3.5
	c-0.4,6.6-3.5,7.7-6.9,8.1H72.8L72.8,55.7z"/>
</svg>
