<?xml version="1.0" encoding="utf-8"?>
<!-- Generator: Adobe Illustrator 23.0.2, SVG Export Plug-In . SVG Version: 6.00 Build 0)  -->
<svg version="1.1" id="Layer_1" xmlns="http://www.w3.org/2000/svg" xmlns:xlink="http://www.w3.org/1999/xlink" x="0px" y="0px"
	 viewBox="0 0 100 100" style="enable-background:new 0 0 100 100;" xml:space="preserve">
<style type="text/css">
	.st0{fill:#9788F8;}
	.st1{fill-rule:evenodd;clip-rule:evenodd;fill:#9788F8;}
	.st2{opacity:0.45;fill:#9788F8;enable-background:new    ;}
	.st3{opacity:0.6;fill:#9788F8;enable-background:new    ;}
	.st4{opacity:0.8;fill:#9788F8;enable-background:new    ;}
</style>
<path class="st0" d="M78.1,68.8v6.9c0,5.4-13.1,9.8-28.1,9.8c-15,0-28.1-4.4-28.1-9.8v-6.9c6.8,4.9,19.7,6.3,28.1,6.3
	C58.5,75.1,71.3,73.7,78.1,68.8z"/>
<path class="st0" d="M50,59.2c-8.5,0-21.3-1.5-28.1-6.3v6.8c0,5.4,13.1,9.8,28.1,9.8c15,0,28.1-4.4,28.1-9.8v-6.8
	C71.3,57.8,58.4,59.2,50,59.2z"/>
<path class="st0" d="M50,18c-15,0-28.1,4.4-28.1,9.8S35,37.6,50,37.6c15,0,28.1-4.4,28.1-9.8C78.1,22.4,65,18,50,18z"/>
<path class="st0" d="M50,43.3c-8.5,0-21.3-1.5-28.1-6.3v6.9c0,5.4,13.1,9.8,28.1,9.8c15,0,28.1-4.4,28.1-9.8v-6.9
	C71.3,41.8,58.4,43.3,50,43.3z"/>
</svg>
