<?xml version="1.0" encoding="utf-8"?>
<!-- Generator: Adobe Illustrator 23.0.2, SVG Export Plug-In . SVG Version: 6.00 Build 0)  -->
<svg version="1.1" id="Layer_1" xmlns="http://www.w3.org/2000/svg" xmlns:xlink="http://www.w3.org/1999/xlink" x="0px" y="0px"
	 viewBox="0 0 100 100" style="enable-background:new 0 0 100 100;" xml:space="preserve">
<style type="text/css">
	.st0{fill:#9788F8;}
	.st1{fill-rule:evenodd;clip-rule:evenodd;fill:#9788F8;}
	.st2{opacity:0.45;fill:#9788F8;enable-background:new    ;}
	.st3{opacity:0.6;fill:#9788F8;enable-background:new    ;}
	.st4{opacity:0.8;fill:#9788F8;enable-background:new    ;}
</style>
<path class="st0" d="M16.8,30.1c-7,10-6.1,23-0.8,33.7c0.1,0.3,0.3,0.5,0.4,0.8c0.1,0.2,0.2,0.3,0.2,0.5c0,0.1,0.1,0.2,0.2,0.3
	c0.1,0.2,0.2,0.3,0.3,0.5c0.2,0.3,0.3,0.6,0.5,0.9c0.1,0.2,0.2,0.3,0.3,0.5c0.2,0.3,0.4,0.6,0.6,0.9c0.1,0.1,0.2,0.3,0.3,0.4
	c0.3,0.4,0.6,0.8,0.9,1.2l0,0c0,0.1,0.1,0.1,0.1,0.2c0.3,0.3,0.5,0.7,0.8,1c0.1,0.1,0.2,0.2,0.3,0.4c0.3,0.4,0.7,0.8,1,1.2
	c0.3,0.4,0.7,0.8,1,1.2c0,0,0,0,0,0c0.7,0.8,1.4,1.5,2.2,2.2c0.1,0.1,0.2,0.2,0.3,0.3c0.4,0.3,0.7,0.7,1.1,1
	c0.1,0.1,0.1,0.1,0.2,0.2c0.3,0.3,0.7,0.6,1,0.9c0.1,0.1,0.3,0.2,0.4,0.3c0.3,0.2,0.6,0.4,0.8,0.7l0.5,0.3c0.3,0.2,0.6,0.5,0.9,0.7
	c0.1,0.1,0.2,0.2,0.3,0.2c0,0,0.1,0,0.1,0.1c0.3,0.2,0.6,0.4,0.9,0.6c0.1,0.1,0.3,0.2,0.4,0.3c0.5,0.3,1,0.6,1.4,0.9
	c0.1,0.1,0.3,0.1,0.4,0.2c0.4,0.2,0.7,0.4,1.1,0.6c0.2,0.1,0.4,0.2,0.6,0.3c0.3,0.1,0.5,0.3,0.8,0.4c0.1,0,0.1,0.1,0.2,0.1
	c0.1,0.1,0.2,0.1,0.3,0.2c0.5,0.2,1,0.5,1.5,0.7c0.5,0.2,0.9,0.4,1.4,0.6c0.1,0,0.2,0.1,0.3,0.1c0.5,0.2,1,0.4,1.5,0.6
	c0.5,0.2,1,0.3,1.5,0.5c0.1,0,0.2,0.1,0.4,0.1c0.5,0.2,1,0.3,1.6,0.4c33.7,6.1,43.4-20.2,43.4-20.2c-8.2,10.7-22.8,13.5-36.6,10.4
	c-0.5-0.1-1-0.3-1.5-0.4c-0.6-0.2-1.2-0.4-1.9-0.6l-0.2-0.1c-0.4-0.2-0.9-0.3-1.3-0.5c-0.1,0-0.2-0.1-0.4-0.1
	c-0.5-0.2-0.9-0.4-1.4-0.6c-0.1,0-0.2-0.1-0.3-0.1c-0.5-0.2-1-0.5-1.5-0.7c-0.3-0.2-0.6-0.3-0.9-0.5c-0.2-0.1-0.4-0.2-0.6-0.3
	c-0.4-0.2-0.7-0.4-1.1-0.6c-0.1-0.1-0.2-0.1-0.4-0.2c-0.5-0.3-1-0.6-1.4-0.9c-0.1-0.1-0.3-0.2-0.4-0.3c-0.3-0.2-0.7-0.4-1-0.7
	c-0.1-0.1-0.2-0.2-0.3-0.2c-0.3-0.2-0.6-0.5-1-0.7c-0.1-0.1-0.3-0.2-0.4-0.3c-0.4-0.3-0.8-0.7-1.3-1c-0.4-0.3-0.7-0.6-1.1-0.9
	l-0.1-0.1c-0.4-0.3-0.8-0.7-1.1-1c-0.1-0.1-0.2-0.2-0.3-0.3c-0.3-0.3-0.6-0.5-0.8-0.8c-0.1-0.1-0.2-0.2-0.3-0.3
	c-0.3-0.4-0.7-0.7-1-1.1l-0.1-0.1c-0.3-0.4-0.7-0.8-1-1.2c-0.1-0.1-0.2-0.2-0.3-0.3c-0.2-0.3-0.5-0.6-0.7-0.9
	c-0.1-0.1-0.2-0.2-0.3-0.3c-0.3-0.4-0.6-0.8-0.9-1.1c-7.7-10.5-10.4-24.9-4.3-36.7"/>
<path class="st0" d="M38.4,21.7c-5,7.2-4.8,16.9-0.8,24.6c0.7,1.3,1.4,2.5,2.2,3.7c0.8,1.1,1.6,2.4,2.6,3.2c0.4,0.4,0.7,0.8,1.1,1.2
	c0.1,0.1,0.2,0.2,0.3,0.3c0.4,0.4,0.8,0.7,1.2,1.1c0,0,0,0,0,0c0,0,0,0,0,0c0.4,0.4,0.9,0.8,1.3,1.1c0.1,0.1,0.2,0.2,0.3,0.2
	c0.5,0.4,0.9,0.7,1.4,1c0,0,0,0,0,0c0.2,0.1,0.4,0.3,0.6,0.4c0.1,0.1,0.2,0.1,0.3,0.2c0.3,0.2,0.7,0.4,1,0.6c0.1,0,0.1,0.1,0.1,0.1
	c0.3,0.2,0.6,0.3,0.9,0.5c0.1,0.1,0.2,0.1,0.3,0.2c0.2,0.1,0.4,0.2,0.6,0.3c0,0,0.1,0,0.1,0c0.4,0.2,0.9,0.4,1.3,0.6
	c0.1,0,0.2,0.1,0.3,0.1c0.4,0.2,0.7,0.3,1.1,0.4c0.2,0.1,0.3,0.1,0.5,0.2c0.3,0.1,0.7,0.2,1,0.4c0.2,0,0.3,0.1,0.5,0.1
	c0.5,0.2,1,0.3,1.5,0.4c26,4.3,32-15.7,32-15.7C85,55,74.5,58.8,63.3,55.9c-0.6-0.2-1.3-0.4-1.9-0.6c-0.5-0.2-1-0.3-1.5-0.5
	c-0.4-0.1-0.7-0.3-1.1-0.4c-0.1,0-0.2-0.1-0.3-0.1c-0.5-0.2-0.9-0.4-1.4-0.6c-0.2-0.1-0.5-0.2-0.7-0.3L56.1,53
	c-0.3-0.2-0.6-0.3-0.9-0.5c-0.1,0-0.1-0.1-0.2-0.1c-0.4-0.2-0.7-0.4-1-0.6c-0.1-0.1-0.2-0.1-0.3-0.2c-0.2-0.1-0.5-0.3-0.7-0.4
	c-0.5-0.3-0.9-0.7-1.4-1c-0.1-0.1-0.2-0.2-0.3-0.2c-4.9-3.9-8.8-9.1-10.6-15.1c-1.9-6.2-1.5-13.2,1.8-18.8"/>
<path class="st0" d="M56.5,15.4c-3,4.4-3.3,9.8-1.2,14.6c2.2,5.1,6.6,9.1,11.8,11c0.2,0.1,0.4,0.2,0.6,0.2c0.1,0,0.2,0.1,0.3,0.1
	c0.3,0.1,0.6,0.2,0.9,0.3c14.4,2.8,18.2-7.4,19.3-8.9c-3.4,4.9-9.1,6.1-16.2,4.4c-0.6-0.1-1.1-0.3-1.7-0.5c-0.7-0.2-1.4-0.5-2-0.8
	c-1.2-0.6-2.4-1.3-3.5-2.2c-6.3-4.8-10.2-13.9-6.1-21.3"/>
</svg>
