<?xml version="1.0" encoding="utf-8"?>
<!-- Generator: Adobe Illustrator 23.0.2, SVG Export Plug-In . SVG Version: 6.00 Build 0)  -->
<svg version="1.1" id="Layer_1" xmlns="http://www.w3.org/2000/svg" xmlns:xlink="http://www.w3.org/1999/xlink" x="0px" y="0px"
	 viewBox="0 0 100 100" style="enable-background:new 0 0 100 100;" xml:space="preserve">
<style type="text/css">
	.st0{fill:#9788F8;}
	.st1{fill-rule:evenodd;clip-rule:evenodd;fill:#9788F8;}
	.st2{opacity:0.45;fill:#9788F8;enable-background:new    ;}
	.st3{opacity:0.6;fill:#9788F8;enable-background:new    ;}
	.st4{opacity:0.8;fill:#9788F8;enable-background:new    ;}
</style>
<path class="st0" d="M50,10.4c-3.2,0-6.3,0.3-9,0.8c-8,1.4-9.4,4.3-9.4,9.8v7.2h18.8v2.4H24.6c-5.4,0-10.2,3.3-11.7,9.5
	c-1.7,7.2-1.8,11.6,0,19.1c1.3,5.6,4.5,9.5,10,9.5h6.5v-8.6c0-6.2,5.4-11.7,11.7-11.7h18.7c5.2,0,9.4-4.3,9.4-9.6V20.9
	c0-5.1-4.3-8.9-9.4-9.8C56.5,10.6,53.2,10.3,50,10.4z M39.8,16.1c1.9,0,3.5,1.6,3.5,3.6s-1.6,3.6-3.5,3.6s-3.5-1.6-3.5-3.6
	S37.8,16.1,39.8,16.1z"/>
<path class="st0" d="M71.6,30.5v8.3c0,6.5-5.5,11.9-11.8,11.9H41c-5.1,0-9.4,4.4-9.4,9.6v17.9c0,5.1,4.4,8.1,9.4,9.6
	c5.9,1.8,11.6,2.1,18.8,0c4.7-1.4,9.4-4.1,9.4-9.6V71H50.4v-2.4h28.3c5.4,0,7.5-3.8,9.4-9.5c2-5.9,1.9-11.5,0-19.1
	c-1.3-5.4-3.9-9.5-9.4-9.5L71.6,30.5z M60.9,75.9c1.9,0,3.5,1.6,3.5,3.6s-1.6,3.6-3.5,3.6c-1.9,0-3.5-1.6-3.5-3.6S59,75.9,60.9,75.9
	z"/>
</svg>
